<?xml version="1.0" encoding="UTF-8"?>
<svg width="1060px" height="260px" viewBox="0 0 1060 260" version="1.1" xmlns="http://www.w3.org/2000/svg" xmlns:xlink="http://www.w3.org/1999/xlink">
    <title>logo-light</title>
    <g id="logo-light" stroke="none" stroke-width="1" fill="none" fill-rule="evenodd">
        <path d="M375.996977,0 C379.862971,0 382.996977,3.13400675 382.996977,7 L382.996977,97.2513459 C400.207071,74.3856311 425.193559,60 453,60 C504.914766,60 547,110.144108 547,172 L547,253 C547,256.865993 543.865993,260 540,260 L530,260 C526.134007,260 523,256.865993 523,253 L523,172 C523,123.398942 491.659932,84 453,84 C414.340068,84 383,123.398942 383,172 L383,253 C383,256.865993 379.865993,260 376,260 L366,260 C362.134039,260 359.000045,256.865961 358.999919,253 L358.997059,7 C358.997059,3.21454828 362.001681,0.130866386 365.756246,0.00398043919 L365.996977,0 L375.996977,0 Z M599.948,0 C603.813993,0 606.948,3.13400675 606.948,7 L606.948,59.999 L648,59.9998543 C651.865936,60.0000805 655,63.1340636 655,67 L655,77 C655,80.7854517 651.995362,83.8690987 648.240795,83.995941 L648,83.9998543 L606.948,83.999 L606.948,138.689 L607.003483,138.68963 L606.999,196.003967 L607.003483,196.661473 C607.233084,218.447771 618.784191,236 633,236 C635.327619,236 637.583799,235.529442 639.730542,234.646788 C640.173005,234.464866 640.610818,234.265437 641.043649,234.049014 L641.153666,233.989369 C643.797517,232.474709 647.168657,233.3901 648.683316,236.033952 C648.788778,236.218036 648.883534,236.408051 648.967111,236.603048 L654.4013,249.281715 C655.250157,251.262207 654.529784,253.55359 652.730294,254.699033 L652.540311,254.81338 L650.704906,255.831304 L650.242737,256.077404 C650.157303,256.121867 650.083381,256.159511 650.020972,256.190338 L649.703827,256.341439 C644.480355,258.710601 638.857816,260 633,260 L632.17319,259.991426 C604.941343,259.426299 583.001676,230.994947 583,196.004009 L583.202,83.999 L566,83.9997108 C562.214548,84.0001504 559.130777,80.9955003 559.00378,77.2409388 L559,77 L559,67 C559,63.1341195 562.13412,60.0001595 566,59.9997113 L583.246,59.999 L583.34209,6.98731175 C583.349088,3.12627899 586.481039,0 590.342078,0 L599.948,0 Z M725,60 C728.865993,60 732,63.1334388 732,66.999432 L731.996977,97.2513459 C749.207071,74.3856311 774.193559,60 802,60 C837.20925,60 867.897187,83.0649039 884.001351,117.2054 C900.102813,83.0649039 930.79075,60 966,60 C1017.91477,60 1060,110.144108 1060,172 L1060,253 C1060,256.865993 1056.86599,260 1053,260 L1043,260 C1039.13401,260 1036,256.865993 1036,253 L1036,172 C1036,123.398942 1004.65993,84 966,84 L964.842422,84.0117895 C927.09766,84.781128 896.615069,123.106863 896.009192,170.559284 L896,172 L896,253 C896,256.865993 892.865993,260 889,260 L879,260 C875.134007,260 872,256.865993 872,253 L872,172 C872,123.398942 840.659932,84 802,84 C763.340068,84 732,123.398942 732,172 L732,253 C732,256.865993 728.865993,260 725,260 L715,260 C711.134007,260 708,256.865993 708,253 L708,67 C708,63.1340068 711.134007,60 715,60 L725,60 Z" id="Combined-Shape" fill="#000000"></path>
        <path d="M94.0586188,44 C106.706362,44 118.77069,46.8699207 129.785189,52.0738806 L130.660415,52.4947869 L131.59295,52.9959133 C132.057578,53.2505513 132.675989,53.5927852 133.448183,54.022615 C136.677489,55.8151663 137.954937,59.8094044 136.367623,63.1443825 L130.953136,74.5157054 C129.87602,76.7778264 127.169035,77.7384634 124.906914,76.6613482 L124.699989,76.5562448 L124.49871,76.4406963 L123.225017,75.675792 C122.630933,75.3217047 122.226053,75.0857166 122.010378,74.9678276 L121.481037,74.6904302 C113.059619,70.3834356 103.791069,68 94.0586188,68 C55.7852856,68 24.6861521,104.85968 24.0679968,150.610906 L24.0586188,151.959 L24.0679968,153.307733 C24.1347782,158.250395 24.1115604,163.011354 24.0011497,167.518434 L23.9991628,253 C23.9989102,256.86593 20.8649298,260 16.9990001,260 L7,260 C3.21454828,260 0.130901317,256.995283 0.0040590183,253.240716 L6.63942905e-05,253 L0.00183058544,67 C0.00193364835,63.1340327 3.13592966,60.0000664 7.00189698,60 L16.9990001,60 C20.8649009,60.0002366 23.9988694,63.1340992 23.9992367,67 L23.9985844,79.9930535 C41.2104728,57.9025323 66.2214514,44 94.0586188,44 Z M233,44 C282.631404,44 323.278923,88.1933532 326.758503,144.198382 L326.852539,145.899086 C327.161168,152.266812 322.249299,157.679068 315.881572,157.987697 C315.695394,157.99672 315.509025,158.001233 315.322629,158.001221 L206,158.000073 C202.134035,157.999959 199.000073,154.865965 199,151 L199,141 C199,137.214548 202.00478,134.130901 205.759347,134.004059 L206,134 L301.389111,134.000046 C294.522423,96.2578388 266.5112,68 233,68 C194.340068,68 163,105.608081 163,152 C163,198.391919 194.340068,236 233,236 C242.732451,236 252.001,233.616564 260.422419,229.30957 C260.716458,229.159188 261.03384,228.990476 261.374565,228.803433 C264.763929,226.943833 269.018898,228.184494 270.878066,231.574095 C270.942571,231.691699 271.003682,231.811132 271.060339,231.932715 L275.336906,240.914216 C276.933581,244.268852 275.630798,248.286298 272.368265,250.063611 L271.559132,250.500733 C270.778682,250.917487 270.08428,251.273141 269.475927,251.567693 C258.260149,256.998146 245.935192,260 233,260 C181.085234,260 139,211.646753 139,152 C139,92.353247 181.085234,44 233,44 Z" id="Shape" fill="#EB455F"></path>
    </g>
</svg>