<?xml version="1.0" encoding="UTF-8"?>
<svg width="1125px" height="260px" viewBox="0 0 1125 260" version="1.1" xmlns="http://www.w3.org/2000/svg" xmlns:xlink="http://www.w3.org/1999/xlink">
    <title>logo-dark</title>
    <g id="logo-dark" stroke="none" stroke-width="1" fill="none" fill-rule="evenodd">
        <g id="Group" transform="translate(0.000000, -0.000081)">
            <rect id="Rectangle" fill="#EB455F" x="370" y="236.000081" width="755" height="24"></rect>
            <path d="M385,8.13767559e-05 C388.865993,8.13767559e-05 392,3.13408813 392,7.00008138 L392,253.000081 C392,256.866075 388.865993,260.000081 385,260.000081 L266,260.000081 C278.935192,260.000081 291.260149,256.998227 302.475927,251.567775 C303.08428,251.273222 303.778682,250.917569 304.559132,250.500814 L305.368265,250.063693 C308.630798,248.286379 309.933581,244.268934 308.336906,240.914297 L304.060339,231.932797 C304.003682,231.811213 303.942571,231.69178 303.878066,231.574177 C302.018898,228.184575 297.763929,226.943914 294.374565,228.803514 C294.03384,228.990557 293.716458,229.15927 293.422419,229.309651 C285.001,233.616646 275.732451,236.000081 266,236.000081 C227.340068,236.000081 196,198.392 196,152.000081 C196,105.608162 227.340068,68.0000814 266,68.0000814 C299.5112,68.0000814 327.522423,96.2579202 334.389111,134.000127 L239,134.000081 L238.759347,134.00414 C235.00478,134.130983 232,137.21463 232,141.000081 L232,151.000081 C232.000073,154.866046 235.134035,158.000041 239,158.000155 L348.322629,158.001303 C348.509025,158.001314 348.695394,157.996802 348.881572,157.987778 C355.249299,157.679149 360.161168,152.266894 359.852539,145.899167 L359.758503,144.198463 C356.278923,88.1934345 315.631404,44.0000814 266,44.0000814 C214.085234,44.0000814 172,92.3533284 172,152.000081 C172,211.646834 214.085234,260.000081 266,260.000081 L48.9990001,260.000081 C52.8649298,260.000081 55.9989102,256.866011 55.9991628,253.000081 L56.0011497,167.518516 C56.1115604,163.011435 56.1347782,158.250477 56.0679968,153.307814 L56.0586188,151.959081 L56.0679968,150.610988 C56.6861521,104.859762 87.7852856,68.0000814 126.058619,68.0000814 C135.791069,68.0000814 145.059619,70.383517 153.481037,74.6905116 L154.010378,74.9679089 L154.545026,75.2737417 C154.734316,75.3844574 154.96098,75.5185013 155.225017,75.6758734 L156.49871,76.4407777 L156.699989,76.5563262 L156.906914,76.6614296 C159.169035,77.7385447 161.87602,76.7779078 162.953136,74.5157868 L168.367623,63.1444639 C169.954937,59.8094858 168.677489,55.8152477 165.448183,54.0226964 L163.59295,52.9959947 L162.660415,52.4948683 L161.785189,52.073962 C150.77069,46.8700021 138.706362,44.0000814 126.058619,44.0000814 C98.2214514,44.0000814 73.2104728,57.9026137 55.9985844,79.9931349 L55.9992367,67.0000814 C55.9988694,63.1341805 52.8649009,60.000318 48.9990001,60.0000814 L39.001897,60.0000814 C35.1359297,60.0001478 32.0019336,63.1341141 32.0018306,67.0000814 L32.0000664,253.000081 L32.004059,253.240798 C32.1309013,256.995364 35.2145483,260.000081 39,260.000081 L7,260.000081 C3.13400675,260.000081 0,256.866075 0,253.000081 L0,7.00008138 C0,3.13408813 3.13400675,8.13767559e-05 7,8.13767559e-05 L385,8.13767559e-05 Z M430.996977,8.13767559e-05 L440.996977,8.13767559e-05 C444.862971,8.13767559e-05 447.996977,3.13408813 447.996977,7.00008138 L447.996977,97.2514273 C465.207071,74.3857125 490.193559,60.0000814 518,60.0000814 C569.914766,60.0000814 612,110.144189 612,172.000081 L612,253.000081 C612,256.866075 608.865993,260.000081 605,260.000081 L595,260.000081 C591.134007,260.000081 588,256.866075 588,253.000081 L588,172.000081 C588,123.399023 556.659932,84.0000814 518,84.0000814 C479.340068,84.0000814 448,123.399023 448,172.000081 L448,253.000081 C448,256.866075 444.865993,260.000081 441,260.000081 L431,260.000081 C427.134039,260.000081 424.000045,256.866043 423.999919,253.000081 L423.997059,7.00008138 C423.997059,3.21462965 427.001681,0.130947763 430.756246,0.00406181595 L430.996977,8.13767559e-05 Z M671.948,7.00008138 L671.948,59.9990814 L713,59.9999357 C716.865936,60.0001618 720,63.134145 720,67.0000814 L720,77.0000814 C720,80.7855331 716.995362,83.8691801 713.240795,83.9960224 L713,83.9999357 L671.948,83.9990814 L671.948,138.689081 L672.003483,138.689712 L671.999,196.004048 L672.003483,196.661555 C672.233084,218.447853 683.784191,236.000081 698,236.000081 C700.327619,236.000081 702.583799,235.529524 704.730542,234.64687 C705.173005,234.464947 705.610818,234.265518 706.043649,234.049095 L706.153666,233.98945 C708.797517,232.474791 712.168657,233.390182 713.683316,236.034034 C713.788778,236.218118 713.883534,236.408132 713.967111,236.60313 L719.4013,249.281796 C720.250157,251.262288 719.529784,253.553671 717.730294,254.699115 L717.540311,254.813462 L715.704906,255.831385 L715.12322,256.139066 L714.703827,256.341521 C709.480355,258.710683 703.857816,260.000081 698,260.000081 L697.17319,259.991508 C669.941343,259.42638 648.001676,230.995028 648,196.00409 L648.202,83.9990814 L631,83.9997921 C627.214548,84.0002318 624.130777,80.9955817 624.00378,77.2410202 L624,77.0000814 L624,67.0000814 C624,63.1342009 627.13412,60.0002408 631,59.9997927 L648.246,59.9990814 L648.34209,6.98739313 C648.349088,3.12636036 651.481039,8.13767559e-05 655.342078,8.13767559e-05 L664.948,8.13767559e-05 C668.813993,8.13767559e-05 671.948,3.13408813 671.948,7.00008138 Z M797,66.9995134 L796.996977,97.2514273 C814.207071,74.3857125 839.193559,60.0000814 867,60.0000814 C902.20925,60.0000814 932.897187,83.0649853 949.001351,117.205481 C965.102813,83.0649853 995.79075,60.0000814 1031,60.0000814 C1082.91477,60.0000814 1125,110.144189 1125,172.000081 L1125,253.000081 C1125,256.866075 1121.86599,260.000081 1118,260.000081 L1108,260.000081 C1104.13401,260.000081 1101,256.866075 1101,253.000081 L1101,172.000081 C1101,123.399023 1069.65993,84.0000814 1031,84.0000814 L1029.84242,84.0118709 C992.09766,84.7812093 961.615069,123.106945 961.009192,170.559365 L961,172.000081 L961,253.000081 C961,256.866075 957.865993,260.000081 954,260.000081 L944,260.000081 C940.134007,260.000081 937,256.866075 937,253.000081 L937,172.000081 C937,123.399023 905.659932,84.0000814 867,84.0000814 C828.340068,84.0000814 797,123.399023 797,172.000081 L797,253.000081 C797,256.866075 793.865993,260.000081 790,260.000081 L780,260.000081 C776.134007,260.000081 773,256.866075 773,253.000081 L773,67.0000814 C773,63.1340881 776.134007,60.0000814 780,60.0000814 L790,60.0000814 C793.865993,60.0000814 797,63.1335202 797,66.9995134 Z" id="Shape" fill="#FFFFFF"></path>
        </g>
    </g>
</svg>