<?xml version="1.0" encoding="UTF-8"?>
<svg width="320px" height="110px" viewBox="0 0 320 110" version="1.1" xmlns="http://www.w3.org/2000/svg" xmlns:xlink="http://www.w3.org/1999/xlink">
    <title>logo-dark</title>
    <g id="rehtm" stroke="none" stroke-width="1" fill="none" fill-rule="evenodd">
        <g id="logo-dark" transform="translate(-165, -47)">
            <g transform="translate(165, 47)" id="Combined-Shape">
                <path d="M140,58 C131.163444,58 124,63.372583 124,70 L124,109 L108,109 L108,0 L124,0 L124.000403,45.7456975 C128.707086,43.3634422 134.171572,42 140,42 C157.673112,42 172,54.536027 172,70 L172,109 L156,109 L156,70 C156,63.372583 148.836556,58 140,58 Z M200,17 L200,44 L216,44 L216,60 L200,60 L200,90 C200,92.209139 203.581722,94 208,94 L208,100.25 L208,110 C194.745166,110 184,101.045695 184,90 L184,60 L176,60 L176,44 L184,44 L184,17 L200,17 Z M292,58 C285.372583,58 280,63.372583 280,70 L280,109 L264,109 L264,70 C264,63.372583 258.627417,58 252,58 C245.372583,58 240,63.372583 240,70 L240,109 L224,109 L224,45 L239.377993,44.9995364 C243.170679,43.0809371 247.459106,42 252,42 C259.83508,42 266.918523,45.2181374 272.000636,50.4047183 C277.081477,45.2181374 284.16492,42 292,42 C307.463973,42 320,54.536027 320,70 L320,109 L304,109 L304,70 C304,63.372583 298.627417,58 292,58 Z" fill="#FFFFFF"></path>
                <path d="M32,42 L32,58 C23.163444,58 16,63.372583 16,70 L16,109 L0,109 L0,45 L16,45 L16.000403,45.7456975 C20.7070858,43.3634422 26.1715721,42 32,42 Z M36,83 L36,70 C36,54.536027 50.326888,42 68,42 C84.5149758,42 98.3459691,52.9407374 100,67 C100.333333,69.8333333 100.333333,75.1666667 100,83 L52.2213844,83.0007238 C53.4913236,88.6757943 60.0723469,93 68,93 C68.3359073,93 68.6693969,92.9922365 69.0001673,92.9769358 L69,93 L92,93 L92,109 L68,109 C51.0955713,109 37.2526121,97.5307543 36.0804061,83.000386 L36,83 Z M68,58 C60.5445917,58 54.2801561,61.8243703 52.5040338,67.0001054 L83.4959662,67.0001054 C81.7198439,61.8243703 75.4554083,58 68,58 Z" fill="#E0144C"></path>
            </g>
        </g>
    </g>
</svg>