<?xml version="1.0" encoding="UTF-8"?>
<svg width="1125px" height="260px" viewBox="0 0 1125 260" version="1.1" xmlns="http://www.w3.org/2000/svg" xmlns:xlink="http://www.w3.org/1999/xlink">
    <title>logo-dark</title>
    <g id="logo-dark" stroke="none" stroke-width="1" fill="none" fill-rule="evenodd">
        <g id="Group">
            <path d="M32,236 L32.0000664,253 L32.004059,253.240716 C32.1309013,256.995283 35.2145483,260 39,260 L7,260 C3.13400675,260 0,256.865993 0,253 L0,236 L32,236 Z M206.914111,236.001697 C223.058086,251.010276 243.615301,260 266,260 L48.9990001,260 C52.8649298,260 55.9989102,256.86593 55.9991628,253 L55.9990001,236 L206.914111,236.001697 Z M1118,236 C1121.86599,236 1125,239.134007 1125,243 L1125,253 C1125,256.865993 1121.86599,260 1118,260 L266,260 C278.935192,260 291.260149,256.998146 302.475927,251.567693 C303.287065,251.174957 304.251178,250.673596 305.368265,250.063611 C308.630798,248.286298 309.933581,244.268852 308.336906,240.914216 L305.996,236 L1118,236 Z" id="Shape" fill="#EB455F"></path>
            <path d="M440.996977,0 C444.862971,0 447.996977,3.13400675 447.996977,7 L447.996977,97.2513459 C465.207071,74.3856311 490.193559,60 518,60 C569.914766,60 612,110.144108 612,172 L612,253 C612,256.865993 608.865993,260 605,260 L595,260 C591.134007,260 588,256.865993 588,253 L588,172 C588,123.398942 556.659932,84 518,84 C479.340068,84 448,123.398942 448,172 L448,253 C448,256.865993 444.865993,260 441,260 L431,260 C427.134039,260 424.000045,256.865961 423.999919,253 L423.997059,7 C423.997059,3.21454828 427.001681,0.130866386 430.756246,0.00398043919 L430.996977,0 L440.996977,0 Z M664.948,0 C668.813993,0 671.948,3.13400675 671.948,7 L671.948,59.999 L713,59.9998543 C716.865936,60.0000805 720,63.1340636 720,67 L720,77 C720,80.7854517 716.995362,83.8690987 713.240795,83.995941 L713,83.9998543 L671.948,83.999 L671.948,138.689 L672.003483,138.68963 L671.999,196.003967 L672.003483,196.661473 C672.233084,218.447771 683.784191,236 698,236 C700.327619,236 702.583799,235.529442 704.730542,234.646788 C705.173005,234.464866 705.610818,234.265437 706.043649,234.049014 L706.153666,233.989369 C708.797517,232.474709 712.168657,233.3901 713.683316,236.033952 C713.788778,236.218036 713.883534,236.408051 713.967111,236.603048 L719.4013,249.281715 C720.250157,251.262207 719.529784,253.55359 717.730294,254.699033 L717.540311,254.81338 L715.704906,255.831304 L715.242737,256.077404 C715.157303,256.121867 715.083381,256.159511 715.020972,256.190338 L714.703827,256.341439 C709.480355,258.710601 703.857816,260 698,260 L697.17319,259.991426 C669.941343,259.426299 648.001676,230.994947 648,196.004009 L648.202,83.999 L631,83.9997108 C627.214548,84.0001504 624.130777,80.9955003 624.00378,77.2409388 L624,77 L624,67 C624,63.1341195 627.13412,60.0001595 631,59.9997113 L648.246,59.999 L648.34209,6.98731175 C648.349088,3.12627899 651.481039,0 655.342078,0 L664.948,0 Z M790,60 C793.865993,60 797,63.1334388 797,66.999432 L796.996977,97.2513459 C814.207071,74.3856311 839.193559,60 867,60 C902.20925,60 932.897187,83.0649039 949.001351,117.2054 C965.102813,83.0649039 995.79075,60 1031,60 C1082.91477,60 1125,110.144108 1125,172 L1125,253 C1125,256.865993 1121.86599,260 1118,260 L1108,260 C1104.13401,260 1101,256.865993 1101,253 L1101,172 C1101,123.398942 1069.65993,84 1031,84 L1029.84242,84.0117895 C992.09766,84.781128 961.615069,123.106863 961.009192,170.559284 L961,172 L961,253 C961,256.865993 957.865993,260 954,260 L944,260 C940.134007,260 937,256.865993 937,253 L937,172 C937,123.398942 905.659932,84 867,84 C828.340068,84 797,123.398942 797,172 L797,253 C797,256.865993 793.865993,260 790,260 L780,260 C776.134007,260 773,256.865993 773,253 L773,67 C773,63.1340068 776.134007,60 780,60 L790,60 Z M385,0 C388.865993,0 392,3.13400675 392,7 L392,236 L305.997,236 L304.060339,231.932715 C304.003682,231.811132 303.942571,231.691699 303.878066,231.574095 C302.018898,228.184494 297.763929,226.943833 294.374565,228.803433 C294.03384,228.990476 293.716458,229.159188 293.422419,229.30957 C285.001,233.616564 275.732451,236 266,236 C227.340068,236 196,198.391919 196,152 C196,105.608081 227.340068,68 266,68 C299.5112,68 327.522423,96.2578388 334.389111,134.000046 L239,134 L238.759347,134.004059 C235.00478,134.130901 232,137.214548 232,141 L232,151 C232.000073,154.865965 235.134035,157.999959 239,158.000073 L348.322629,158.001221 C348.509025,158.001233 348.695394,157.99672 348.881572,157.987697 C355.249299,157.679068 360.161168,152.266812 359.852539,145.899086 L359.758503,144.198382 C356.278923,88.1933532 315.631404,44 266,44 C214.085234,44 172,92.353247 172,152 C172,185.928162 185.616855,216.202263 206.914111,236.001697 L55.999,236 L56.0011497,167.518434 C56.1115604,163.011354 56.1347782,158.250395 56.0679968,153.307733 L56.0586188,151.959 L56.0679968,150.610906 C56.6861521,104.85968 87.7852856,68 126.058619,68 C135.791069,68 145.059619,70.3834356 153.481037,74.6904302 L154.010378,74.9678276 L154.410066,75.1949976 C154.62332,75.3188121 154.894971,75.4790769 155.225017,75.675792 L156.49871,76.4406963 L156.699989,76.5562448 L156.906914,76.6613482 C159.169035,77.7384634 161.87602,76.7778264 162.953136,74.5157054 L168.367623,63.1443825 C169.954937,59.8094044 168.677489,55.8151663 165.448183,54.022615 L163.59295,52.9959133 L162.660415,52.4947869 L161.785189,52.0738806 C150.77069,46.8699207 138.706362,44 126.058619,44 C98.2214514,44 73.2104728,57.9025323 55.9985844,79.9930535 L55.9992367,67 C55.9988694,63.1340992 52.8649009,60.0002366 48.9990001,60 L39.001897,60 C35.1359297,60.0000664 32.0019336,63.1340327 32.0018306,67 L32,236 L0,236 L0,7 C0,3.13400675 3.13400675,0 7,0 L385,0 Z" id="Combined-Shape" fill="#FFFFFF"></path>
        </g>
    </g>
</svg>