<?xml version="1.0" encoding="UTF-8"?>
<svg width="1055px" height="260px" viewBox="0 0 1055 260" version="1.1" xmlns="http://www.w3.org/2000/svg" xmlns:xlink="http://www.w3.org/1999/xlink">
    <title>logo-dark</title>
    <g id="logo-dark" stroke="none" stroke-width="1" fill="none" fill-rule="evenodd">
        <path d="M94.0586188,44 C106.706362,44 118.77069,46.8699207 129.785189,52.0738806 L130.660415,52.4947869 L131.59295,52.9959133 C132.057578,53.2505513 132.675989,53.5927852 133.448183,54.022615 C136.677489,55.8151663 137.954937,59.8094044 136.367623,63.1443825 L130.953136,74.5157054 C129.87602,76.7778264 127.169035,77.7384634 124.906914,76.6613482 L124.699989,76.5562448 L124.49871,76.4406963 L123.225017,75.675792 C122.630933,75.3217047 122.226053,75.0857166 122.010378,74.9678276 L121.481037,74.6904302 C113.059619,70.3834356 103.791069,68 94.0586188,68 C55.7852856,68 24.6861521,104.85968 24.0679968,150.610906 L24.0586188,151.959 L24.0679968,153.307733 C24.1347782,158.250395 24.1115604,163.011354 24.0011497,167.518434 L23.9991628,253 C23.9989102,256.86593 20.8649298,260 16.9990001,260 L7,260 C3.21454828,260 0.130901317,256.995283 0.0040590183,253.240716 L6.63942905e-05,253 L0.00183058544,67 C0.00193364835,63.1340327 3.13592966,60.0000664 7.00189698,60 L16.9990001,60 C20.8649009,60.0002366 23.9988694,63.1340992 23.9992367,67 L23.9985844,79.9930535 C41.2104728,57.9025323 66.2214514,44 94.0586188,44 Z M233,44 C282.631404,44 323.278923,88.1933532 326.758503,144.198382 L326.852539,145.899086 C327.161168,152.266812 322.249299,157.679068 315.881572,157.987697 C315.695394,157.99672 315.509025,158.001233 315.322629,158.001221 L206,158.000073 C202.134035,157.999959 199.000073,154.865965 199,151 L199,141 C199,137.214548 202.00478,134.130901 205.759347,134.004059 L206,134 L301.389111,134.000046 C294.522423,96.2578388 266.5112,68 233,68 C194.340068,68 163,105.608081 163,152 C163,198.391919 194.340068,236 233,236 C242.732451,236 252.001,233.616564 260.422419,229.30957 C260.716458,229.159188 261.03384,228.990476 261.374565,228.803433 C264.763929,226.943833 269.018898,228.184494 270.878066,231.574095 C270.942571,231.691699 271.003682,231.811132 271.060339,231.932715 L275.336906,240.914216 C276.933581,244.268852 275.630798,248.286298 272.368265,250.063611 L271.559132,250.500733 C270.778682,250.917487 270.08428,251.273141 269.475927,251.567693 C258.260149,256.998146 245.935192,260 233,260 C181.085234,260 139,211.646753 139,152 C139,92.353247 181.085234,44 233,44 Z" id="Shape" fill="#EB455F"></path>
        <path d="M381.996977,0 L391.996977,0 C395.862971,0 398.996977,3.13400675 398.996977,7 L398.996977,97.2513459 C416.207071,74.3856311 441.193559,60 469,60 C520.914766,60 563,110.144108 563,172 L563,253 C563,256.865993 559.865993,260 556,260 L546,260 C542.134007,260 539,256.865993 539,253 L539,172 C539,123.398942 507.659932,84 469,84 C430.340068,84 399,123.398942 399,172 L399,253 C399,256.865993 395.865993,260 392,260 L382,260 C378.134039,260 375.000045,256.865961 374.999919,253 L374.997059,7 C374.997059,3.21454828 378.001681,0.130866386 381.756246,0.00398043919 L381.996977,0 Z M622.948,7 L622.948,59.999 L664,59.9998543 C667.865936,60.0000805 671,63.1340636 671,67 L671,77 C671,80.7854517 667.995362,83.8690987 664.240795,83.995941 L664,83.9998543 L622.948,83.999 L622.948,138.689 L623.003483,138.68963 L622.999,196.003967 L623.003483,196.661473 C623.233084,218.447771 634.784191,236 649,236 C651.327619,236 653.583799,235.529442 655.730542,234.646788 C656.173005,234.464866 656.610818,234.265437 657.043649,234.049014 L657.153666,233.989369 C659.797517,232.474709 663.168657,233.3901 664.683316,236.033952 C664.788778,236.218036 664.883534,236.408051 664.967111,236.603048 L670.4013,249.281715 C671.250157,251.262207 670.529784,253.55359 668.730294,254.699033 L668.540311,254.81338 L666.704906,255.831304 L666.242737,256.077404 C666.157303,256.121867 666.083381,256.159511 666.020972,256.190338 L665.703827,256.341439 C660.480355,258.710601 654.857816,260 649,260 L648.17319,259.991426 C620.941343,259.426299 599.001676,230.994947 599,196.004009 L599.202,83.999 L582,83.9997108 C578.214548,84.0001504 575.130777,80.9955003 575.00378,77.2409388 L575,77 L575,67 C575,63.1341195 578.13412,60.0001595 582,59.9997113 L599.246,59.999 L599.34209,6.98731175 C599.349088,3.12627899 602.481039,0 606.342078,0 L615.948,0 C619.813993,0 622.948,3.13400675 622.948,7 Z M727,66.999432 L726.996977,97.2513459 C744.207071,74.3856311 769.193559,60 797,60 C832.20925,60 862.897187,83.0649039 879.001351,117.2054 C895.102813,83.0649039 925.79075,60 961,60 C1012.91477,60 1055,110.144108 1055,172 L1055,253 C1055,256.865993 1051.86599,260 1048,260 L1038,260 C1034.13401,260 1031,256.865993 1031,253 L1031,172 C1031,123.398942 999.659932,84 961,84 L959.842422,84.0117895 C922.09766,84.781128 891.615069,123.106863 891.009192,170.559284 L891,172 L891,253 C891,256.865993 887.865993,260 884,260 L874,260 C870.134007,260 867,256.865993 867,253 L867,172 C867,123.398942 835.659932,84 797,84 C758.340068,84 727,123.398942 727,172 L727,253 C727,256.865993 723.865993,260 720,260 L710,260 C706.134007,260 703,256.865993 703,253 L703,67 C703,63.1340068 706.134007,60 710,60 L720,60 C723.865993,60 727,63.1334388 727,66.999432 Z" id="Shape" fill="#FFFFFF"></path>
    </g>
</svg>